<svg width="44" height="28" viewBox="0 0 44 28" fill="none" xmlns="http://www.w3.org/2000/svg">
    <path
        d="M9.332 22.204C9.332 23.116 9.392 23.86 9.512 24.436C9.632 24.988 9.872 25.42 10.232 25.732C10.616 26.02 11.144 26.224 11.816 26.344C12.512 26.464 13.436 26.536 14.588 26.56V28H0.26V26.56C1.052 26.536 1.7 26.464 2.204 26.344C2.708 26.224 3.092 26.02 3.356 25.732C3.62 25.444 3.8 25.036 3.896 24.508C3.992 23.98 4.04 23.296 4.04 22.456V5.824C4.04 4.984 3.992 4.312 3.896 3.808C3.824 3.28 3.668 2.872 3.428 2.584C3.188 2.272 2.84 2.068 2.384 1.972C1.952 1.852 1.376 1.768 0.656 1.72V0.279999H22.688L23.12 7.876H21.608C21.464 6.844 21.248 5.98 20.96 5.284C20.696 4.564 20.312 3.988 19.808 3.556C19.304 3.1 18.656 2.776 17.864 2.584C17.072 2.392 16.1 2.296 14.948 2.296H9.98C9.548 2.296 9.332 2.5 9.332 2.908V13.312C10.796 13.312 11.984 13.252 12.896 13.132C13.832 13.012 14.576 12.784 15.128 12.448C15.68 12.088 16.076 11.608 16.316 11.008C16.556 10.408 16.724 9.616 16.82 8.632H18.152V19.9H16.82C16.676 18.892 16.472 18.088 16.208 17.488C15.944 16.864 15.536 16.396 14.984 16.084C14.456 15.748 13.736 15.52 12.824 15.4C11.912 15.28 10.748 15.22 9.332 15.22V22.204ZM34.9083 22.42C34.9083 23.356 34.9443 24.1 35.0163 24.652C35.1123 25.18 35.2923 25.588 35.5563 25.876C35.8203 26.164 36.2043 26.356 36.7083 26.452C37.2123 26.524 37.8843 26.56 38.7243 26.56V28H26.7003V26.56C27.4203 26.512 27.9963 26.44 28.4283 26.344C28.8603 26.248 29.1843 26.056 29.4003 25.768C29.6163 25.48 29.7483 25.072 29.7963 24.544C29.8683 23.992 29.9043 23.26 29.9043 22.348V17.956C29.9043 16.468 29.8683 15.28 29.7963 14.392C29.7243 13.504 29.5683 12.82 29.3283 12.34C29.0883 11.86 28.7403 11.548 28.2843 11.404C27.8523 11.236 27.2763 11.152 26.5563 11.152V9.892L33.7563 8.56L34.3323 12.7H34.4763C35.1243 11.428 35.9763 10.42 37.0323 9.676C38.0883 8.932 39.2043 8.56 40.3803 8.56C41.2923 8.56 42.0363 8.788 42.6123 9.244C43.1883 9.7 43.4763 10.276 43.4763 10.972C43.4763 11.74 43.2483 12.388 42.7923 12.916C42.3603 13.444 41.7603 13.708 40.9923 13.708C40.6323 13.708 40.3083 13.636 40.0203 13.492C39.7323 13.348 39.4683 13.192 39.2283 13.024C39.0123 12.832 38.7843 12.664 38.5443 12.52C38.3283 12.352 38.1003 12.268 37.8603 12.268C37.4043 12.268 36.9723 12.568 36.5643 13.168C36.1563 13.768 35.8203 14.572 35.5563 15.58C35.3643 16.3 35.2083 17.116 35.0883 18.028C34.9683 18.916 34.9083 19.804 34.9083 20.692V22.42Z"
        fill="#1F2937" />
</svg>